0
SECTION
2
HEADER
9
$INSUNITS
70
4
9
$ACADVER
1
AC1014
9
$HANDSEED
5
FFFF
0
ENDSEC
0
SECTION
2
TABLES
0
TABLE
2
VPORT
5
8
100
AcDbSymbolTable
0
ENDTAB
0
TABLE
2
LTYPE
5
5
100
AcDbSymbolTable
0
LTYPE
5
14
100
AcDbSymbolTableRecord
100
AcDbLinetypeTableRecord
2
BYBLOCK
70
0
0
LTYPE
5
15
100
AcDbSymbolTableRecord
100
AcDbLinetypeTableRecord
2
BYLAYER
70
0
0
ENDTAB
0
TABLE
2
LAYER
5
2
100
AcDbSymbolTable
70
2
0
LAYER
5
50
100
AcDbSymbolTableRecord
100
AcDbLayerTableRecord
2
0
70
0
6
CONTINUOUS
0
ENDTAB
0
TABLE
2
STYLE
5
3
100
AcDbSymbolTable
70
1
0
STYLE
5
11
100
AcDbSymbolTableRecord
100
AcDbTextStyleTableRecord
2
STANDARD
70
0
0
ENDTAB
0
TABLE
2
VIEW
5
6
100
AcDbSymbolTable
70
0
0
ENDTAB
0
TABLE
2
UCS
5
7
100
AcDbSymbolTable
70
0
0
ENDTAB
0
TABLE
2
APPID
5
9
100
AcDbSymbolTable
70
2
0
APPID
5
12
100
AcDbSymbolTableRecord
100
AcDbRegAppTableRecord
2
ACAD
70
0
0
ENDTAB
0
TABLE
2
DIMSTYLE
5
A
100
AcDbSymbolTable
70
1
0
ENDTAB
0
TABLE
2
BLOCK_RECORD
5
1
100
AcDbSymbolTable
70
1
0
BLOCK_RECORD
5
1F
100
AcDbSymbolTableRecord
100
AcDbBlockTableRecord
2
*MODEL_SPACE
0
BLOCK_RECORD
5
1B
100
AcDbSymbolTableRecord
100
AcDbBlockTableRecord
2
*PAPER_SPACE
0
ENDTAB
0
ENDSEC
0
SECTION
2
BLOCKS
0
BLOCK
5
20
100
AcDbEntity
100
AcDbBlockBegin
2
*MODEL_SPACE
0
ENDBLK
5
21
100
AcDbEntity
100
AcDbBlockEnd
0
BLOCK
5
1C
100
AcDbEntity
100
AcDbBlockBegin
2
*PAPER_SPACE
0
ENDBLK
5
1D
100
AcDbEntity
100
AcDbBlockEnd
0
ENDSEC
0
SECTION
2
ENTITIES
0
CIRCLE
5
100
100
AcDbEntity
8
0
100
AcDbCircle
10
32.100000953674453
20
-135.0000009536742
30
0
40
1.5500000000000025
210
1.7456536864859176e-137
220
7.7787690973264271e-62
230
1
0
CIRCLE
5
101
100
AcDbEntity
8
0
100
AcDbCircle
10
4.2981309536744483
20
-123.00000095367429
30
0
40
1.5500000000000025
210
1.7456536864859176e-137
220
7.7787690973264271e-62
230
1
0
LWPOLYLINE
5
102
100
AcDbEntity
8
0
100
AcDbPolyline
90
4
70
1
43
0.0
10
-9.9999990463255095
20
-112.00000095368634
10
-6.9999990463255113
20
-112.00000095368635
10
-6.9999990463255113
20
-92.000000953686339
10
-9.9999990463255095
20
-92.000000953686339
0
LWPOLYLINE
5
103
100
AcDbEntity
8
0
100
AcDbPolyline
90
4
70
1
43
0.0
10
-9.9999990463255095
20
-61.000000953667019
10
-6.9999990463255113
20
-61.000000953667012
10
-6.9999990463255113
20
-41.000000953697395
10
-9.9999990463255095
20
-41.000000953697395
0
CIRCLE
5
104
100
AcDbEntity
8
0
100
AcDbCircle
10
141.45000095367408
20
-151.45000095367431
30
0
40
1.5500000000000025
210
1.2954252832641682e-77
220
9.7234613716580339e-63
230
1
0
CIRCLE
5
105
100
AcDbEntity
8
0
100
AcDbCircle
10
-8.4499990463254093
20
-151.45000095367411
30
0
40
1.5500000000000025
210
1.2954252832641682e-77
220
9.7234613716580339e-63
230
1
0
CIRCLE
5
106
100
AcDbEntity
8
0
100
AcDbCircle
10
141.45000095367431
20
-1.5500009536742887
30
0
40
1.5500000000000025
210
1.2954252832641682e-77
220
9.7234613716580339e-63
230
1
0
CIRCLE
5
107
100
AcDbEntity
8
0
100
AcDbCircle
10
-8.4499990463252317
20
-1.5500009536740933
30
0
40
1.5500000000000025
210
1.2954252832641682e-77
220
9.7234613716580339e-63
230
1
0
LWPOLYLINE
5
108
100
AcDbEntity
8
0
100
AcDbPolyline
90
4
70
1
43
0.0
10
51.000000953674125
20
-9.5367420627212596e-07
10
31.000000953674125
20
-9.5367420627212596e-07
10
31.000000953674125
20
-3.0100009536742078
10
51.000000953674125
20
-3.0100009536742078
0
LWPOLYLINE
5
109
100
AcDbEntity
8
0
100
AcDbPolyline
90
4
70
1
43
0.0
10
143.0000009536742
20
-92.000000953674302
10
139.99000095367418
20
-92.000000953674302
10
139.99000095367418
20
-112.0000009536743
10
143.0000009536742
20
-112.0000009536743
0
LWPOLYLINE
5
110
100
AcDbEntity
8
0
100
AcDbPolyline
90
4
70
1
43
0.0
10
51.000000953674565
20
-153.0000009536742
10
51.000000953674125
20
-149.99000095367418
10
31.000000953674125
20
-149.99000095367421
10
31.000000953674586
20
-153.0000009536742
0
LWPOLYLINE
5
111
100
AcDbEntity
8
0
100
AcDbPolyline
90
4
70
1
43
0.0
10
82.000000953674231
20
-9.5367420627212596e-07
10
82.000000953674231
20
-3.0100009536742078
10
102.00000095367423
20
-3.0100009536742078
10
102.00000095367423
20
-9.5367420627212596e-07
0
LWPOLYLINE
5
112
100
AcDbEntity
8
0
100
AcDbPolyline
90
4
70
1
43
0.0
10
143.0000009536742
20
-61.000000953674331
10
143.0000009536742
20
-41.000000953674331
10
139.99000095367418
20
-41.000000953674316
10
139.99000095367418
20
-61.000000953674316
0
LWPOLYLINE
5
113
100
AcDbEntity
8
0
100
AcDbPolyline
90
4
70
1
43
0.0
10
82.000000953674544
20
-153.0000009536742
10
102.00000095367459
20
-153.0000009536742
10
102.00000095367426
20
-149.99000095367418
10
82.000000953674231
20
-149.99000095367421
0
LWPOLYLINE
5
114
100
AcDbEntity
8
0
100
AcDbPolyline
90
8
70
1
43
0.0
10
146.00000095367403
20
-153.00000095367432
42
-0.4142135623730881
10
143.00000095367403
20
-156.00000095367432
10
-9.9999990463248878
20
-156.00000095367434
42
-0.41421356237309109
10
-12.999999046324877
20
-153.00000095367434
10
-12.999999046325934
20
-9.5367433107835735e-07
42
-0.4142135623730967
10
-9.9999990463259358
20
2.9999990463256854
10
143.00000095367406
20
2.9999990463256774
42
-0.4142135623730917
10
146.00000095367403
20
-9.5367431285353632e-07
0
ENDSEC
0
SECTION
2
OBJECTS
0
DICTIONARY
5
C
100
AcDbDictionary
3
ACAD_GROUP
350
D
3
ACAD_MLINESTYLE
350
17
0
DICTIONARY
5
D
100
AcDbDictionary
0
DICTIONARY
5
1A
330
C
100
AcDbDictionary
0
DICTIONARY
5
17
100
AcDbDictionary
0
ENDSEC
0
EOF
