0
SECTION
2
HEADER
9
$INSUNITS
70
4
9
$ACADVER
1
AC1014
9
$HANDSEED
5
FFFF
0
ENDSEC
0
SECTION
2
TABLES
0
TABLE
2
VPORT
5
8
100
AcDbSymbolTable
0
ENDTAB
0
TABLE
2
LTYPE
5
5
100
AcDbSymbolTable
0
LTYPE
5
14
100
AcDbSymbolTableRecord
100
AcDbLinetypeTableRecord
2
BYBLOCK
70
0
0
LTYPE
5
15
100
AcDbSymbolTableRecord
100
AcDbLinetypeTableRecord
2
BYLAYER
70
0
0
ENDTAB
0
TABLE
2
LAYER
5
2
100
AcDbSymbolTable
70
2
0
LAYER
5
50
100
AcDbSymbolTableRecord
100
AcDbLayerTableRecord
2
0
70
0
6
CONTINUOUS
0
ENDTAB
0
TABLE
2
STYLE
5
3
100
AcDbSymbolTable
70
1
0
STYLE
5
11
100
AcDbSymbolTableRecord
100
AcDbTextStyleTableRecord
2
STANDARD
70
0
0
ENDTAB
0
TABLE
2
VIEW
5
6
100
AcDbSymbolTable
70
0
0
ENDTAB
0
TABLE
2
UCS
5
7
100
AcDbSymbolTable
70
0
0
ENDTAB
0
TABLE
2
APPID
5
9
100
AcDbSymbolTable
70
2
0
APPID
5
12
100
AcDbSymbolTableRecord
100
AcDbRegAppTableRecord
2
ACAD
70
0
0
ENDTAB
0
TABLE
2
DIMSTYLE
5
A
100
AcDbSymbolTable
70
1
0
ENDTAB
0
TABLE
2
BLOCK_RECORD
5
1
100
AcDbSymbolTable
70
1
0
BLOCK_RECORD
5
1F
100
AcDbSymbolTableRecord
100
AcDbBlockTableRecord
2
*MODEL_SPACE
0
BLOCK_RECORD
5
1B
100
AcDbSymbolTableRecord
100
AcDbBlockTableRecord
2
*PAPER_SPACE
0
ENDTAB
0
ENDSEC
0
SECTION
2
BLOCKS
0
BLOCK
5
20
100
AcDbEntity
100
AcDbBlockBegin
2
*MODEL_SPACE
0
ENDBLK
5
21
100
AcDbEntity
100
AcDbBlockEnd
0
BLOCK
5
1C
100
AcDbEntity
100
AcDbBlockBegin
2
*PAPER_SPACE
0
ENDBLK
5
1D
100
AcDbEntity
100
AcDbBlockEnd
0
ENDSEC
0
SECTION
2
ENTITIES
0
ARC
5
100
100
AcDbEntity
8
0
100
AcDbCircle
10
-43.999999046325946
20
1.1920932935227668e-07
30
7.1202451876856092e-47
40
1.4999999999999591
210
1.7249795599755597e-33
220
1.4879899233640611e-44
230
1
100
AcDbArc
50
180
51
270.00000000000136
0
LINE
5
101
100
AcDbEntity
8
0
100
AcDbLine
10
-43.999999046325911
20
-1.4999998807906298
30
-5.4123506253351629e-48
11
-26.999999046325929
21
-1.49999988079067
31
-6.7274202839046778e-31
0
ARC
5
102
100
AcDbEntity
8
0
100
AcDbCircle
10
-26.999999046325943
20
1.1920933885856133e-07
30
1.0691058840368783e-47
40
1.5000000000000089
210
-6.6036295774121953e-33
220
-4.4849468559364265e-31
230
1
100
AcDbArc
50
270.00000000000057
51
360
0
LINE
5
103
100
AcDbEntity
8
0
100
AcDbLine
10
-25.499999046325932
20
1.1920931378669476e-07
30
-2.5874693399633379e-33
11
-25.499999046325929
21
3.0000001192093246
31
7.7037197775489434e-33
0
LINE
5
104
100
AcDbEntity
8
0
100
AcDbLine
10
-25.499999046325929
20
3.0000001192093246
30
7.7037197775489434e-33
11
5.5000009536740624
21
3.0000001192092753
31
-3.2382426397628743e-29
0
LINE
5
105
100
AcDbEntity
8
0
100
AcDbLine
10
5.5000009536740624
20
3.0000001192092753
30
-3.2382426397628743e-29
11
5.5000009536740659
21
1.1920930576003741e-07
31
0
0
ARC
5
106
100
AcDbEntity
8
0
100
AcDbCircle
10
7.0000009536740446
20
1.1920929576803019e-07
30
4.2871145949878818e-47
40
1.4999999999999791
210
-2.85807639665393e-47
220
7.0518541171296871e-45
230
1
100
AcDbArc
50
180
51
270.00000000000102
0
LINE
5
107
100
AcDbEntity
8
0
100
AcDbLine
10
7.0000009536740713
20
-1.4999998807906789
30
3.6203090875898041e-49
11
24.000000953674054
21
-1.4999998807906811
31
-3.1595246693793104e-47
0
ARC
5
108
100
AcDbEntity
8
0
100
AcDbCircle
10
24.00000095367405
20
1.1920932560527397e-07
30
1.7105694144590052e-48
40
1.5000000000000069
210
-2.5814188348572986e-32
220
-9.8629227449757423e-47
230
1
100
AcDbArc
50
270.00000000000017
51
360
0
LINE
5
109
100
AcDbEntity
8
0
100
AcDbLine
10
25.500000953674057
20
1.1920930264283117e-07
30
-2.5874693399633427e-33
11
25.500000953674054
21
3.0000001192092718
31
0
0
LINE
5
110
100
AcDbEntity
8
0
100
AcDbLine
10
25.500000953674054
20
3.0000001192092718
30
0
11
56.500000953674046
21
3.0000001192092669
31
3.9441678476353249e-31
0
SPLINE
5
111
100
AcDbEntity
8
0
100
AcDbSpline
70
4
71
5
72
21
73
15
74
0
42
0.000000001
43
0.0000000001
44
0.0000000001
40
-1
40
-1
40
-1
40
-1
40
-1
40
-1
40
-0.89999999999999991
40
-0.79999999999999993
40
-0.69999999999999996
40
-0.59999999999999998
40
-0.5
40
-0.40000000000000002
40
-0.30000000000000004
40
-0.20000000000000001
40
-0.10000000000000001
40
0
40
0
40
0
40
0
40
0
40
0
41
1
41
1
41
1
41
1
41
1
41
1
41
1
41
1
41
1
41
1
41
1
41
1
41
1
41
1
41
1
10
56.500000953674032
20
3.0000001192092673
30
-1.7763568394002505e-14
10
56.272458126089937
20
3.7000001192085912
30
-1.7763568394002505e-14
10
55.837243677623164
20
5.1000001192073707
30
-1.7763568394002505e-14
10
55.244033798104084
20
7.2000001192059404
30
-1.7763568394002505e-14
10
54.574288125008962
20
10.000000119204838
30
-1.7763568394002505e-14
10
53.952816785325325
20
13.500000119204827
30
-1.7763568394002505e-14
10
53.566334061854477
20
17.000000119206167
30
-1.7763568394002505e-14
10
53.434016812936314
20
20.500000119208668
30
-1.7763568394002505e-14
10
53.566334061854839
20
24.000000119211791
30
-1.7763568394002505e-14
10
53.952816785325972
20
27.500000119214526
30
-1.7763568394002505e-14
10
54.57428812500973
20
31.000000119215613
30
-1.7763568394002505e-14
10
55.244033798104766
20
33.800000119214324
30
-1.7763568394002505e-14
10
55.83724367762364
20
35.900000119211711
30
-1.7763568394002505e-14
10
56.272458126090214
20
37.300000119209159
30
-1.7763568394002505e-14
10
56.500000953674189
20
38.000000119207712
30
-1.7763568394002505e-14
0
LINE
5
112
100
AcDbEntity
8
0
100
AcDbLine
10
56.500000953674189
20
38.000000119207698
30
8.8817841970012539e-15
11
25.500000953673997
21
38.000000119208906
31
-9.2815001304360626e-30
0
LINE
5
113
100
AcDbEntity
8
0
100
AcDbLine
10
25.500000953673997
20
38.000000119208906
30
-9.2815001304360626e-30
11
25.500000953674192
21
41.000000119208778
31
7.7037197775489434e-33
0
ARC
5
114
100
AcDbEntity
8
0
100
AcDbCircle
10
24.000000953674217
20
41.000000119208899
30
-8.8817841970012523e-15
40
1.4999999999999725
210
-5.9211894646676115e-15
220
4.5625114154062488e-28
230
1
100
AcDbArc
50
0
51
90.000000000000966
0
LINE
5
115
100
AcDbEntity
8
0
100
AcDbLine
10
24.000000953674192
20
42.500000119208863
30
-8.8817841970012523e-15
11
7.0000009536742187
21
42.500000119208856
31
-8.8817841970012523e-15
0
ARC
5
116
100
AcDbEntity
8
0
100
AcDbCircle
10
7.0000009536742249
20
41.000000119208863
30
-2.4084817355582793e-45
40
1.4999999999999947
210
-2.1912802922806066e-29
220
5.9211894646675223e-15
230
1
100
AcDbArc
50
90.000000000000242
51
180
0
LINE
5
117
100
AcDbEntity
8
0
100
AcDbLine
10
5.5000009536742214
20
41.000000119208984
30
7.184986070415352e-31
11
5.5000009536740144
21
38.000000119208913
31
-7.7037197775489434e-33
0
LINE
5
118
100
AcDbEntity
8
0
100
AcDbLine
10
5.5000009536740144
20
38.000000119208913
30
-7.7037197775489434e-33
11
-25.499999046325978
21
38.000000119208913
31
3.1554436208840472e-29
0
LINE
5
119
100
AcDbEntity
8
0
100
AcDbLine
10
-25.499999046325978
20
38.000000119208913
30
3.1554436208840472e-29
11
-25.499999046325627
21
41.000000119208707
31
7.7037197775489434e-33
0
ARC
5
120
100
AcDbEntity
8
0
100
AcDbCircle
10
-26.999999046325605
20
41.000000119208899
30
-6.1794320097331563e-47
40
1.4999999999999769
210
-5.1358131850327489e-33
220
9.6987971006228879e-44
230
1
100
AcDbArc
50
0
51
90.000000000000966
0
LINE
5
121
100
AcDbEntity
8
0
100
AcDbLine
10
-26.99999904632563
20
42.500000119208863
30
3.5735092377778005e-48
11
-43.99999904632552
21
42.500000119208863
31
3.1595246693792934e-47
0
ARC
5
122
100
AcDbEntity
8
0
100
AcDbCircle
10
-43.999999046325513
20
41.000000119208863
30
1.0947644252537633e-46
40
1.5000000000000036
210
-3.3419243874715615e-31
220
-1.9268959502601403e-45
230
1
100
AcDbArc
50
90.00000000000027
51
180
0
LINE
5
123
100
AcDbEntity
8
0
100
AcDbLine
10
-45.499999046325527
20
41.000000119208977
30
3.9247747020615687e-31
11
-45.499999046325684
21
38.00000011920892
31
-7.7037197775489434e-33
0
LINE
5
124
100
AcDbEntity
8
0
100
AcDbLine
10
-45.499999046325684
20
38.00000011920892
30
-7.7037197775489434e-33
11
-76.499999046325939
21
38.00000011920892
31
5.7614861618093849e-47
0
SPLINE
5
125
100
AcDbEntity
8
0
100
AcDbSpline
70
4
71
5
72
21
73
15
74
0
42
0.000000001
43
0.0000000001
44
0.0000000001
40
0
40
0
40
0
40
0
40
0
40
0
40
0.10000000000000001
40
0.20000000000000001
40
0.30000000000000004
40
0.40000000000000002
40
0.5
40
0.59999999999999998
40
0.69999999999999996
40
0.79999999999999993
40
0.89999999999999991
40
1
40
1
40
1
40
1
40
1
40
1
41
1
41
1
41
1
41
1
41
1
41
1
41
1
41
1
41
1
41
1
41
1
41
1
41
1
41
1
41
1
10
-76.499999046325939
20
38.000000119208927
30
-1.7763568394002505e-14
10
-76.272456218718219
20
37.300000119209486
30
-1.7763568394002505e-14
10
-75.837241770210326
20
35.900000119210475
30
-1.7763568394002505e-14
10
-75.244031890648131
20
33.800000119211461
30
-1.7763568394002505e-14
10
-74.574286217529931
20
31.000000119211947
30
-1.7763568394002505e-14
10
-73.952814877863943
20
27.500000119211556
30
-1.7763568394002505e-14
10
-73.566332154442023
20
24.000000119210469
30
-1.7763568394002505e-14
10
-73.434014905588242
20
20.500000119209211
30
-1.7763568394002505e-14
10
-73.566332154570574
20
17.000000119208188
30
-1.7763568394002505e-14
10
-73.952814878089427
20
13.500000119207678
30
-1.7763568394002505e-14
10
-74.574286217789222
20
10.000000119207687
30
-1.7763568394002505e-14
10
-75.244031890860924
20
7.2000001192080898
30
-1.7763568394002505e-14
10
-75.837241770337556
20
5.1000001192086062
30
-1.7763568394002505e-14
10
-76.272456218764518
20
3.7000001192090455
30
-1.7763568394002505e-14
10
-76.499999046325883
20
3.0000001192092878
30
-1.7763568394002505e-14
0
LINE
5
126
100
AcDbEntity
8
0
100
AcDbLine
10
-76.499999046325883
20
3.0000001192092887
30
0
11
-45.499999046325925
21
3.0000001192093273
31
8.2799018878826808e-31
0
LINE
5
127
100
AcDbEntity
8
0
100
AcDbLine
10
-45.499999046325925
20
3.0000001192093273
30
8.2799018878826808e-31
11
-45.499999046325911
21
1.192093533174815e-07
31
2.5874693399633403e-33
0
ENDSEC
0
SECTION
2
OBJECTS
0
DICTIONARY
5
C
100
AcDbDictionary
3
ACAD_GROUP
350
D
3
ACAD_MLINESTYLE
350
17
0
DICTIONARY
5
D
100
AcDbDictionary
0
DICTIONARY
5
1A
330
C
100
AcDbDictionary
0
DICTIONARY
5
17
100
AcDbDictionary
0
ENDSEC
0
EOF
