0
SECTION
2
HEADER
9
$INSUNITS
70
4
9
$ACADVER
1
AC1014
9
$HANDSEED
5
FFFF
0
ENDSEC
0
SECTION
2
TABLES
0
TABLE
2
VPORT
5
8
100
AcDbSymbolTable
0
ENDTAB
0
TABLE
2
LTYPE
5
5
100
AcDbSymbolTable
0
LTYPE
5
14
100
AcDbSymbolTableRecord
100
AcDbLinetypeTableRecord
2
BYBLOCK
70
0
0
LTYPE
5
15
100
AcDbSymbolTableRecord
100
AcDbLinetypeTableRecord
2
BYLAYER
70
0
0
ENDTAB
0
TABLE
2
LAYER
5
2
100
AcDbSymbolTable
70
2
0
LAYER
5
50
100
AcDbSymbolTableRecord
100
AcDbLayerTableRecord
2
0
70
0
6
CONTINUOUS
0
ENDTAB
0
TABLE
2
STYLE
5
3
100
AcDbSymbolTable
70
1
0
STYLE
5
11
100
AcDbSymbolTableRecord
100
AcDbTextStyleTableRecord
2
STANDARD
70
0
0
ENDTAB
0
TABLE
2
VIEW
5
6
100
AcDbSymbolTable
70
0
0
ENDTAB
0
TABLE
2
UCS
5
7
100
AcDbSymbolTable
70
0
0
ENDTAB
0
TABLE
2
APPID
5
9
100
AcDbSymbolTable
70
2
0
APPID
5
12
100
AcDbSymbolTableRecord
100
AcDbRegAppTableRecord
2
ACAD
70
0
0
ENDTAB
0
TABLE
2
DIMSTYLE
5
A
100
AcDbSymbolTable
70
1
0
ENDTAB
0
TABLE
2
BLOCK_RECORD
5
1
100
AcDbSymbolTable
70
1
0
BLOCK_RECORD
5
1F
100
AcDbSymbolTableRecord
100
AcDbBlockTableRecord
2
*MODEL_SPACE
0
BLOCK_RECORD
5
1B
100
AcDbSymbolTableRecord
100
AcDbBlockTableRecord
2
*PAPER_SPACE
0
ENDTAB
0
ENDSEC
0
SECTION
2
BLOCKS
0
BLOCK
5
20
100
AcDbEntity
100
AcDbBlockBegin
2
*MODEL_SPACE
0
ENDBLK
5
21
100
AcDbEntity
100
AcDbBlockEnd
0
BLOCK
5
1C
100
AcDbEntity
100
AcDbBlockBegin
2
*PAPER_SPACE
0
ENDBLK
5
1D
100
AcDbEntity
100
AcDbBlockEnd
0
ENDSEC
0
SECTION
2
ENTITIES
0
ARC
5
100
100
AcDbEntity
8
0
100
AcDbCircle
10
43.999999046325165
20
1.1920935925890941e-07
30
8.8817841970012523e-15
40
1.5000000000000062
210
-2.5814186738204847e-32
220
-1.5285069055321743e-46
230
1
100
AcDbArc
50
270.00000000000023
51
360
0
LINE
5
101
100
AcDbEntity
8
0
100
AcDbLine
10
45.499999046325172
20
1.1920933540828819e-07
30
8.8817841970012507e-15
11
45.499999046325179
21
3.0000001192093033
31
8.8817841970012523e-15
0
LINE
5
102
100
AcDbEntity
8
0
100
AcDbLine
10
45.499999046325179
20
3.0000001192093033
30
8.8817841970012523e-15
11
76.499999046325073
21
3.0000001192092656
31
8.8817841970012381e-15
0
SPLINE
5
103
100
AcDbEntity
8
0
100
AcDbSpline
70
4
71
5
72
21
73
15
74
0
42
0.000000001
43
0.0000000001
44
0.0000000001
40
0
40
0
40
0
40
0
40
0
40
0
40
0.10000000000000001
40
0.20000000000000001
40
0.30000000000000004
40
0.40000000000000002
40
0.5
40
0.59999999999999998
40
0.69999999999999996
40
0.79999999999999993
40
0.89999999999999991
40
1
40
1
40
1
40
1
40
1
40
1
41
1
41
1
41
1
41
1
41
1
41
1
41
1
41
1
41
1
41
1
41
1
41
1
41
1
41
1
41
1
10
76.499999046325129
20
38.000000119208849
30
-6.3108872417680944e-29
10
76.272456218717394
20
37.300000119209415
30
1.2621774483536189e-28
10
75.837241770209531
20
35.900000119210397
30
6.3108872417680944e-29
10
75.244031890647335
20
33.80000011921139
30
6.3108872417680944e-29
10
74.574286217529135
20
31.000000119211883
30
0
10
73.952814877863148
20
27.500000119211499
30
1.2621774483536189e-28
10
73.566332154441213
20
24.000000119210409
30
1.8932661725304283e-28
10
73.434014905587446
20
20.500000119209155
30
6.3108872417680944e-29
10
73.566332154569764
20
17.000000119208146
30
1.2621774483536189e-28
10
73.952814878088617
20
13.500000119207638
30
6.3108872417680944e-29
10
74.574286217788412
20
10.000000119207655
30
6.3108872417680944e-29
10
75.244031890860114
20
7.2000001192080614
30
1.2621774483536189e-28
10
75.837241770336746
20
5.1000001192085795
30
1.2621774483536189e-28
10
76.272456218763679
20
3.7000001192090215
30
6.3108872417680944e-29
10
76.499999046325058
20
3.0000001192092651
30
0
0
LINE
5
104
100
AcDbEntity
8
0
100
AcDbLine
10
76.499999046325115
20
38.000000119208849
30
8.8817841970012523e-15
11
45.499999046324945
21
38.000000119208849
31
8.8817841970012523e-15
0
LINE
5
105
100
AcDbEntity
8
0
100
AcDbLine
10
45.499999046324945
20
38.000000119208849
30
8.8817841970012523e-15
11
45.499999046324803
21
41.000000119208892
31
8.8817841970012523e-15
0
ARC
5
106
100
AcDbEntity
8
0
100
AcDbCircle
10
43.99999904632481
20
41.000000119208799
30
8.8817841970012539e-15
40
1.4999999999999947
210
1.3147681753662758e-30
220
3.5159092289639797e-29
230
1
100
AcDbArc
50
0
51
90.00000000000027
0
LINE
5
107
100
AcDbEntity
8
0
100
AcDbLine
10
43.999999046324803
20
42.500000119208785
30
8.8817841970012539e-15
11
26.999999046324959
21
42.500000119208785
31
8.8817841970012523e-15
0
ARC
5
108
100
AcDbEntity
8
0
100
AcDbCircle
10
26.999999046324973
20
41.000000119208771
30
8.8817841970012523e-15
40
1.5000000000000124
210
-2.2444496678593705e-30
220
-1.9934717590957904e-44
230
1
100
AcDbArc
50
90.00000000000054
51
180
0
LINE
5
109
100
AcDbEntity
8
0
100
AcDbLine
10
25.499999046324962
20
41.000000119208622
30
8.8817841970012523e-15
11
25.499999046325307
21
38.000000119208835
31
8.8817841970012523e-15
0
LINE
5
110
100
AcDbEntity
8
0
100
AcDbLine
10
25.499999046325307
20
38.000000119208835
30
8.8817841970012523e-15
11
-5.5000009536745953
21
38.000000119208835
31
8.8817841970012523e-15
0
LINE
5
111
100
AcDbEntity
8
0
100
AcDbLine
10
-5.5000009536745953
20
38.000000119208835
30
8.8817841970012523e-15
11
-5.5000009536747951
21
41.000000119208906
31
8.8817841970012507e-15
0
ARC
5
112
100
AcDbEntity
8
0
100
AcDbCircle
10
-7.0000009536747809
20
41.000000119208799
30
1.7763568394002501e-14
40
1.4999999999999858
210
5.9211894646675555e-15
220
4.2082442373103333e-28
230
1
100
AcDbArc
50
0
51
90.000000000000369
0
LINE
5
113
100
AcDbEntity
8
0
100
AcDbLine
10
-7.0000009536747907
20
42.500000119208785
30
1.7763568394002505e-14
11
-24.000000953674714
21
42.500000119208785
31
8.8817841970012523e-15
0
ARC
5
114
100
AcDbEntity
8
0
100
AcDbCircle
10
-24.000000953674704
20
41.000000119208771
30
1.7763568394002505e-14
40
1.5000000000000124
210
-5.4135184215288431e-29
220
5.9211894646674537e-15
230
1
100
AcDbArc
50
90.000000000000398
51
180
0
LINE
5
115
100
AcDbEntity
8
0
100
AcDbLine
10
-25.500000953674714
20
41.000000119208693
30
1.7763568394002505e-14
11
-25.500000953674519
21
38.000000119208828
31
1.7763568394002505e-14
0
LINE
5
116
100
AcDbEntity
8
0
100
AcDbLine
10
-25.500000953674519
20
38.000000119208828
30
1.7763568394002505e-14
11
-56.500000953674615
21
38.000000119207634
31
-8.881784197001235e-15
0
SPLINE
5
117
100
AcDbEntity
8
0
100
AcDbSpline
70
4
71
5
72
21
73
15
74
0
42
0.000000001
43
0.0000000001
44
0.0000000001
40
0
40
0
40
0
40
0
40
0
40
0
40
0.10000000000000001
40
0.20000000000000001
40
0.30000000000000004
40
0.40000000000000002
40
0.5
40
0.59999999999999998
40
0.69999999999999996
40
0.79999999999999993
40
0.89999999999999991
40
1
40
1
40
1
40
1
40
1
40
1
41
1
41
1
41
1
41
1
41
1
41
1
41
1
41
1
41
1
41
1
41
1
41
1
41
1
41
1
41
1
10
-56.500000953674608
20
38.000000119207634
30
1.2621774483536189e-28
10
-56.272458126090626
20
37.300000119209088
30
6.3108872417680944e-29
10
-55.837243677624066
20
35.900000119211633
30
1.2621774483536189e-28
10
-55.244033798105193
20
33.800000119214253
30
6.3108872417680944e-29
10
-54.574288125010156
20
31.000000119215546
30
6.3108872417680944e-29
10
-53.952816785326405
20
27.500000119214469
30
6.3108872417680944e-29
10
-53.566334061855272
20
24.000000119211734
30
1.2621774483536189e-28
10
-53.434016812936747
20
20.500000119208618
30
6.3108872417680944e-29
10
-53.56633406185491
20
17.000000119206121
30
6.3108872417680944e-29
10
-53.952816785325766
20
13.500000119204786
30
6.3108872417680944e-29
10
-54.574288125009396
20
10.000000119204802
30
6.3108872417680944e-29
10
-55.244033798104525
20
7.2000001192059102
30
6.3108872417680944e-29
10
-55.837243677623604
20
5.100000119207345
30
6.3108872417680944e-29
10
-56.27245812609037
20
3.7000001192085676
30
6.3108872417680944e-29
10
-56.500000953674466
20
3.0000001192092447
30
6.3108872417680944e-29
0
LINE
5
118
100
AcDbEntity
8
0
100
AcDbLine
10
-56.500000953674466
20
3.0000001192092451
30
0
11
-25.500000953674579
21
3.0000001192092496
31
1.7763568394002505e-14
0
LINE
5
119
100
AcDbEntity
8
0
100
AcDbLine
10
-25.500000953674579
20
3.0000001192092496
30
1.7763568394002505e-14
11
-25.50000095367459
21
1.1920928522091145e-07
31
1.7763568394002505e-14
0
ARC
5
120
100
AcDbEntity
8
0
100
AcDbCircle
10
-24.000000953674618
20
1.1920927717179453e-07
30
8.8817841970012507e-15
40
1.4999999999999725
210
5.921189464667613e-15
220
-3.1674956624917172e-29
230
1
100
AcDbArc
50
180
51
270.00000000000068
0
LINE
5
121
100
AcDbEntity
8
0
100
AcDbLine
10
-24.000000953674601
20
-1.4999998807906949
30
8.8817841970012507e-15
11
-7.0000009536746681
21
-1.4999998807906945
31
8.8817841970012523e-15
0
ARC
5
122
100
AcDbEntity
8
0
100
AcDbCircle
10
-7.0000009536746708
20
1.192093092988733e-07
30
8.8817841970012523e-15
40
1.5000000000000038
210
-2.58141867382009e-32
220
-5.7319008957447872e-47
230
1
100
AcDbArc
50
270.00000000000011
51
360
0
LINE
5
123
100
AcDbEntity
8
0
100
AcDbLine
10
-5.5000009536746672
20
1.1920928855687654e-07
30
8.8817841970012507e-15
11
-5.5000009536746575
21
3.0000001192092522
31
8.8817841970012507e-15
0
LINE
5
124
100
AcDbEntity
8
0
100
AcDbLine
10
-5.5000009536746575
20
3.0000001192092522
30
8.8817841970012507e-15
11
25.499999046325247
21
3.0000001192093002
31
8.8817841970012681e-15
0
LINE
5
125
100
AcDbEntity
8
0
100
AcDbLine
10
25.499999046325247
20
3.0000001192093002
30
8.8817841970012681e-15
11
25.499999046325243
21
1.192092963231417e-07
31
8.8817841970012523e-15
0
ARC
5
126
100
AcDbEntity
8
0
100
AcDbCircle
10
26.999999046325218
20
1.1920928827402477e-07
30
8.8817841970012507e-15
40
1.4999999999999769
210
1.31476817536832e-30
220
-9.9100651218392761e-30
230
1
100
AcDbArc
50
180
51
270.00000000000068
0
LINE
5
127
100
AcDbEntity
8
0
100
AcDbLine
10
26.999999046325236
20
-1.4999998807906838
30
8.8817841970012507e-15
11
43.999999046325172
21
-1.4999998807906469
31
8.8817841970012523e-15
0
ENDSEC
0
SECTION
2
OBJECTS
0
DICTIONARY
5
C
100
AcDbDictionary
3
ACAD_GROUP
350
D
3
ACAD_MLINESTYLE
350
17
0
DICTIONARY
5
D
100
AcDbDictionary
0
DICTIONARY
5
1A
330
C
100
AcDbDictionary
0
DICTIONARY
5
17
100
AcDbDictionary
0
ENDSEC
0
EOF
