0
SECTION
2
HEADER
9
$INSUNITS
70
4
9
$ACADVER
1
AC1014
9
$HANDSEED
5
FFFF
0
ENDSEC
0
SECTION
2
TABLES
0
TABLE
2
VPORT
5
8
100
AcDbSymbolTable
0
ENDTAB
0
TABLE
2
LTYPE
5
5
100
AcDbSymbolTable
0
LTYPE
5
14
100
AcDbSymbolTableRecord
100
AcDbLinetypeTableRecord
2
BYBLOCK
70
0
0
LTYPE
5
15
100
AcDbSymbolTableRecord
100
AcDbLinetypeTableRecord
2
BYLAYER
70
0
0
ENDTAB
0
TABLE
2
LAYER
5
2
100
AcDbSymbolTable
70
2
0
LAYER
5
50
100
AcDbSymbolTableRecord
100
AcDbLayerTableRecord
2
0
70
0
6
CONTINUOUS
0
ENDTAB
0
TABLE
2
STYLE
5
3
100
AcDbSymbolTable
70
1
0
STYLE
5
11
100
AcDbSymbolTableRecord
100
AcDbTextStyleTableRecord
2
STANDARD
70
0
0
ENDTAB
0
TABLE
2
VIEW
5
6
100
AcDbSymbolTable
70
0
0
ENDTAB
0
TABLE
2
UCS
5
7
100
AcDbSymbolTable
70
0
0
ENDTAB
0
TABLE
2
APPID
5
9
100
AcDbSymbolTable
70
2
0
APPID
5
12
100
AcDbSymbolTableRecord
100
AcDbRegAppTableRecord
2
ACAD
70
0
0
ENDTAB
0
TABLE
2
DIMSTYLE
5
A
100
AcDbSymbolTable
70
1
0
ENDTAB
0
TABLE
2
BLOCK_RECORD
5
1
100
AcDbSymbolTable
70
1
0
BLOCK_RECORD
5
1F
100
AcDbSymbolTableRecord
100
AcDbBlockTableRecord
2
*MODEL_SPACE
0
BLOCK_RECORD
5
1B
100
AcDbSymbolTableRecord
100
AcDbBlockTableRecord
2
*PAPER_SPACE
0
ENDTAB
0
ENDSEC
0
SECTION
2
BLOCKS
0
BLOCK
5
20
100
AcDbEntity
100
AcDbBlockBegin
2
*MODEL_SPACE
0
ENDBLK
5
21
100
AcDbEntity
100
AcDbBlockEnd
0
BLOCK
5
1C
100
AcDbEntity
100
AcDbBlockBegin
2
*PAPER_SPACE
0
ENDBLK
5
1D
100
AcDbEntity
100
AcDbBlockEnd
0
ENDSEC
0
SECTION
2
ENTITIES
0
LINE
5
100
100
AcDbEntity
8
0
100
AcDbLine
10
26.999999046338274
20
6.3365535736084233
30
0
11
43.999999046338147
21
6.3365535736084233
31
7.536492596009566e-46
0
ARC
5
101
100
AcDbEntity
8
0
100
AcDbCircle
10
43.999999046338147
20
7.8365535736084286
30
0
40
1.5000000000000058
210
-9.7747954592458973e-33
220
5.0243283973396917e-46
230
1
100
AcDbArc
50
270
51
360
0
LINE
5
102
100
AcDbEntity
8
0
100
AcDbLine
10
45.499999046338147
20
7.8365535736084251
30
-2.1019476964872318e-45
11
45.499999046338147
21
10.836553573608425
31
0
0
LINE
5
103
100
AcDbEntity
8
0
100
AcDbLine
10
45.499999046338147
20
10.836553573608425
30
0
11
76.499999046325868
21
10.83655357360843
31
-1.130473889401435e-45
0
SPLINE
5
104
100
AcDbEntity
8
0
100
AcDbSpline
70
4
71
5
72
21
73
15
74
0
42
0.000000001
43
0.0000000001
44
0.0000000001
40
-1
40
-1
40
-1
40
-1
40
-1
40
-1
40
-0.89999999999999991
40
-0.79999999999999993
40
-0.69999999999999996
40
-0.59999999999999998
40
-0.5
40
-0.40000000000000002
40
-0.30000000000000004
40
-0.20000000000000001
40
-0.10000000000000001
40
0
40
0
40
0
40
0
40
0
40
0
41
1
41
1
41
1
41
1
41
1
41
1
41
1
41
1
41
1
41
1
41
1
41
1
41
1
41
1
41
1
10
76.499999046325854
20
10.83655357360843
30
0
10
76.272456218775474
20
11.536553573607266
30
0
10
75.837241770367527
20
12.936553573605053
30
0
10
75.244031890910492
20
15.036553573602077
30
0
10
74.574286217847842
20
17.836553573598817
30
0
10
73.952814878136081
20
21.336553573596014
30
0
10
73.566332154589588
20
24.836553573594635
30
0
10
73.434014905572397
20
28.336553573594806
30
0
10
73.566332154393621
20
31.836553573596454
30
0
10
73.952814877793386
20
35.336553573599119
30
0
10
74.574286217454741
20
38.836553573602139
30
0
10
75.244031890588005
20
41.636553573604402
30
0
10
75.837241770173833
20
43.736553573605633
30
0
10
76.272456218703326
20
45.136553573606157
30
0
10
76.499999046323268
20
45.836553573606366
30
0
0
LINE
5
105
100
AcDbEntity
8
0
100
AcDbLine
10
76.499999046323268
20
45.836553573606373
30
0
11
45.499999046338289
21
45.836553573604121
31
5.9545658847261353e-45
0
LINE
5
106
100
AcDbEntity
8
0
100
AcDbLine
10
45.499999046338289
20
45.836553573604121
30
5.9545658847261353e-45
11
45.499999046338289
21
48.836553573604448
31
0
0
ARC
5
107
100
AcDbEntity
8
0
100
AcDbCircle
10
43.999999046338274
20
48.836553573604427
30
0
40
1.5000000000000124
210
-2.9193718006766786e-46
220
2.4651903288156619e-32
230
1
100
AcDbArc
50
0
51
89.99999999999919
0
LINE
5
108
100
AcDbEntity
8
0
100
AcDbLine
10
43.999999046338296
20
50.336553573604434
30
1.3137173103049415e-46
11
26.999999046338282
21
50.336553573604483
31
3.9091929792657283e-45
0
ARC
5
109
100
AcDbEntity
8
0
100
AcDbCircle
10
26.999999046338271
20
48.836553573604476
30
0
40
1.5000000000000036
210
-9.7747954592437187e-33
220
-2.5193110290049826e-45
230
1
100
AcDbArc
50
89.999999999999588
51
180
0
LINE
5
110
100
AcDbEntity
8
0
100
AcDbLine
10
25.499999046338271
20
48.83655357360449
30
-1.5486496711791854e-45
11
25.499999046338285
21
45.836553573602615
31
0
0
LINE
5
111
100
AcDbEntity
8
0
100
AcDbLine
10
25.499999046338285
20
45.836553573602615
30
0
11
-5.5000009536737204
21
45.836553573609379
31
8.0422705347757453e-45
0
LINE
5
112
100
AcDbEntity
8
0
100
AcDbLine
10
-5.5000009536737204
20
45.836553573609379
30
8.0422705347757453e-45
11
-5.5000009536810293
21
48.836553573603219
31
0
0
ARC
5
113
100
AcDbEntity
8
0
100
AcDbCircle
10
-7.0000009536810328
20
48.836553573599552
30
0
40
1.5000000000000036
210
-2.3385057585841729e-57
220
9.5626758440951566e-46
230
1
100
AcDbArc
50
0
51
89.99999999998677
0
LINE
5
114
100
AcDbEntity
8
0
100
AcDbLine
10
-7.0000009536806864
20
50.336553573599552
30
4.4472719131766145e-57
11
-24.000000953650304
21
50.336553573603524
31
-4.5567008293721739e-45
0
ARC
5
115
100
AcDbEntity
8
0
100
AcDbCircle
10
-24.000000953650655
20
48.836553573603531
30
0
40
1.4999999999999947
210
-1.0838240861194524e-31
220
2.8387035206034252e-44
230
1
100
AcDbArc
50
89.999999999986557
51
180
0
LINE
5
116
100
AcDbEntity
8
0
100
AcDbLine
10
-25.500000953650648
20
48.836553573615056
30
-6.330763308466595e-46
11
-25.50000095367372
21
45.836553573609379
31
0
0
LINE
5
117
100
AcDbEntity
8
0
100
AcDbLine
10
-25.50000095367372
20
45.836553573609379
30
0
11
-56.500000953663552
21
45.836553573621195
31
1.7342989068611186e-30
0
SPLINE
5
118
100
AcDbEntity
8
0
100
AcDbSpline
70
4
71
5
72
21
73
15
74
0
42
0.000000001
43
0.0000000001
44
0.0000000001
40
0
40
0
40
0
40
0
40
0
40
0
40
0.10000000000000001
40
0.20000000000000001
40
0.30000000000000004
40
0.40000000000000002
40
0.5
40
0.59999999999999998
40
0.69999999999999996
40
0.79999999999999993
40
0.89999999999999991
40
1
40
1
40
1
40
1
40
1
40
1
41
1
41
1
41
1
41
1
41
1
41
1
41
1
41
1
41
1
41
1
41
1
41
1
41
1
41
1
41
1
10
-56.500000953659004
20
45.836553573630184
30
0
10
-56.272458126074447
20
45.136553573630636
30
0
10
-55.837243677606793
20
43.736553573631234
30
0
10
-55.244033798086491
20
41.636553573631133
30
0
10
-54.574288124989955
20
38.836553573629317
30
0
10
-53.952816785305075
20
35.336553573625473
30
0
10
-53.566334061833686
20
31.836553573621252
30
0
10
-53.434016812915878
20
28.336553573617991
30
0
10
-53.566334061835889
20
24.836553573616598
30
0
10
-53.952816785309743
20
21.336553573617543
30
0
10
-54.574288124997494
20
17.836553573620861
30
0
10
-55.244033798096751
20
15.036553573625305
30
0
10
-55.837243677619369
20
12.936553573629597
30
0
10
-56.272458126088694
20
11.536553573632876
30
0
10
-56.50000095367411
20
10.836553573634619
30
0
0
LINE
5
119
100
AcDbEntity
8
0
100
AcDbLine
10
-56.500000953674103
20
10.836553573634619
30
0
11
-25.500000953673823
21
10.836553573595321
31
-3.0462693898527465e-45
0
LINE
5
120
100
AcDbEntity
8
0
100
AcDbLine
10
-25.500000953673823
20
10.836553573595321
30
-3.0462693898527465e-45
11
-25.50000095367821
21
7.8365535735983771
31
0
0
ARC
5
121
100
AcDbEntity
8
0
100
AcDbCircle
10
-24.000000953678217
20
7.8365535735961789
30
0
40
1.4999999999999947
210
-3.6127226033374305e-44
220
-2.4651903288156611e-32
230
1
100
AcDbArc
50
180
51
270.00000000003354
0
LINE
5
122
100
AcDbEntity
8
0
100
AcDbLine
10
-24.00000095367734
20
6.3365535735961842
30
1.2221384321781586e-57
11
-7.0000009536773078
21
6.3365535736060785
31
7.4494794165932743e-45
0
ARC
5
123
100
AcDbEntity
8
0
100
AcDbCircle
10
-7.0000009536781791
20
7.8365535736060838
30
0
40
1.5000000000000058
210
-9.7747954553216157e-33
220
-7.129999461158323e-46
230
1
100
AcDbArc
50
270.00000000003325
51
360
0
LINE
5
124
100
AcDbEntity
8
0
100
AcDbLine
10
-5.5000009536781729
20
7.836553573603898
30
-2.1371681423659226e-46
11
-5.5000009536738146
21
10.836553573606951
31
0
0
LINE
5
125
100
AcDbEntity
8
0
100
AcDbLine
10
-5.5000009536738146
20
10.836553573606951
30
0
11
25.499999046338289
21
10.836553573608423
31
1.148009923200223e-44
0
LINE
5
126
100
AcDbEntity
8
0
100
AcDbLine
10
25.499999046338289
20
10.836553573608423
30
1.148009923200223e-44
11
25.499999046338271
21
7.8365535736084366
31
0
0
ARC
5
127
100
AcDbEntity
8
0
100
AcDbCircle
10
26.999999046338292
20
7.8365535736084446
30
0
40
1.5000000000000213
210
-1.2772251627960391e-46
220
2.4651903288156619e-32
230
1
100
AcDbArc
50
180
51
269.99999999999932
0
ENDSEC
0
SECTION
2
OBJECTS
0
DICTIONARY
5
C
100
AcDbDictionary
3
ACAD_GROUP
350
D
3
ACAD_MLINESTYLE
350
17
0
DICTIONARY
5
D
100
AcDbDictionary
0
DICTIONARY
5
1A
330
C
100
AcDbDictionary
0
DICTIONARY
5
17
100
AcDbDictionary
0
ENDSEC
0
EOF
