0
SECTION
2
HEADER
9
$INSUNITS
70
4
9
$ACADVER
1
AC1014
9
$HANDSEED
5
FFFF
0
ENDSEC
0
SECTION
2
TABLES
0
TABLE
2
VPORT
5
8
100
AcDbSymbolTable
0
ENDTAB
0
TABLE
2
LTYPE
5
5
100
AcDbSymbolTable
0
LTYPE
5
14
100
AcDbSymbolTableRecord
100
AcDbLinetypeTableRecord
2
BYBLOCK
70
0
0
LTYPE
5
15
100
AcDbSymbolTableRecord
100
AcDbLinetypeTableRecord
2
BYLAYER
70
0
0
ENDTAB
0
TABLE
2
LAYER
5
2
100
AcDbSymbolTable
70
2
0
LAYER
5
50
100
AcDbSymbolTableRecord
100
AcDbLayerTableRecord
2
0
70
0
6
CONTINUOUS
0
ENDTAB
0
TABLE
2
STYLE
5
3
100
AcDbSymbolTable
70
1
0
STYLE
5
11
100
AcDbSymbolTableRecord
100
AcDbTextStyleTableRecord
2
STANDARD
70
0
0
ENDTAB
0
TABLE
2
VIEW
5
6
100
AcDbSymbolTable
70
0
0
ENDTAB
0
TABLE
2
UCS
5
7
100
AcDbSymbolTable
70
0
0
ENDTAB
0
TABLE
2
APPID
5
9
100
AcDbSymbolTable
70
2
0
APPID
5
12
100
AcDbSymbolTableRecord
100
AcDbRegAppTableRecord
2
ACAD
70
0
0
ENDTAB
0
TABLE
2
DIMSTYLE
5
A
100
AcDbSymbolTable
70
1
0
ENDTAB
0
TABLE
2
BLOCK_RECORD
5
1
100
AcDbSymbolTable
70
1
0
BLOCK_RECORD
5
1F
100
AcDbSymbolTableRecord
100
AcDbBlockTableRecord
2
*MODEL_SPACE
0
BLOCK_RECORD
5
1B
100
AcDbSymbolTableRecord
100
AcDbBlockTableRecord
2
*PAPER_SPACE
0
ENDTAB
0
ENDSEC
0
SECTION
2
BLOCKS
0
BLOCK
5
20
100
AcDbEntity
100
AcDbBlockBegin
2
*MODEL_SPACE
0
ENDBLK
5
21
100
AcDbEntity
100
AcDbBlockEnd
0
BLOCK
5
1C
100
AcDbEntity
100
AcDbBlockBegin
2
*PAPER_SPACE
0
ENDBLK
5
1D
100
AcDbEntity
100
AcDbBlockEnd
0
ENDSEC
0
SECTION
2
ENTITIES
0
CIRCLE
5
100
100
AcDbEntity
8
0
100
AcDbCircle
10
-17.500000000000092
20
-56.5
30
0
40
3.6500000000000075
210
9.8607613152626421e-32
220
-4.9303806576313167e-32
230
1
0
CIRCLE
5
101
100
AcDbEntity
8
0
100
AcDbCircle
10
-52.500000000000085
20
-17.499999999999986
30
0
40
15.499999999999998
210
1.97215226305253e-31
220
2.4651903288156783e-32
230
1
0
CIRCLE
5
102
100
AcDbEntity
8
0
100
AcDbCircle
10
-52.500000000000085
20
17.500000000000018
30
0
40
15.499999999999998
210
1.97215226305253e-31
220
2.4651903288156783e-32
230
1
0
CIRCLE
5
103
100
AcDbEntity
8
0
100
AcDbCircle
10
52.499999999999929
20
52.500000000000028
30
0
40
15.499999999999998
210
9.8607613152626498e-32
220
2.4651903288156701e-32
230
1
0
CIRCLE
5
104
100
AcDbEntity
8
0
100
AcDbCircle
10
-17.500000000000085
20
52.500000000000028
30
0
40
15.5
210
9.8607613152626498e-32
220
2.4651903288156701e-32
230
1
0
CIRCLE
5
105
100
AcDbEntity
8
0
100
AcDbCircle
10
52.499999999999929
20
-17.499999999999986
30
0
40
15.499999999999998
210
9.8607613152626498e-32
220
2.4651903288156701e-32
230
1
0
CIRCLE
5
106
100
AcDbEntity
8
0
100
AcDbCircle
10
17.499999999999922
20
17.500000000000018
30
0
40
15.500000000000004
210
9.8607613152626498e-32
220
2.4651903288156701e-32
230
1
0
CIRCLE
5
107
100
AcDbEntity
8
0
100
AcDbCircle
10
52.499999999999922
20
-56.5
30
0
40
3.6500000000000075
210
9.8607613152626421e-32
220
-4.9303806576313167e-32
230
1
0
CIRCLE
5
108
100
AcDbEntity
8
0
100
AcDbCircle
10
17.499999999999911
20
-56.5
30
0
40
3.6500000000000075
210
9.8607613152626421e-32
220
-4.9303806576313167e-32
230
1
0
CIRCLE
5
109
100
AcDbEntity
8
0
100
AcDbCircle
10
-17.500000000000085
20
-17.499999999999986
30
0
40
15.5
210
9.8607613152626498e-32
220
2.4651903288156701e-32
230
1
0
CIRCLE
5
110
100
AcDbEntity
8
0
100
AcDbCircle
10
-17.500000000000085
20
17.500000000000018
30
0
40
15.5
210
9.8607613152626498e-32
220
2.4651903288156701e-32
230
1
0
CIRCLE
5
111
100
AcDbEntity
8
0
100
AcDbCircle
10
17.499999999999922
20
52.500000000000028
30
0
40
15.500000000000004
210
9.8607613152626498e-32
220
2.4651903288156701e-32
230
1
0
CIRCLE
5
112
100
AcDbEntity
8
0
100
AcDbCircle
10
-52.500000000000085
20
52.500000000000028
30
0
40
15.499999999999998
210
1.97215226305253e-31
220
2.4651903288156783e-32
230
1
0
CIRCLE
5
113
100
AcDbEntity
8
0
100
AcDbCircle
10
17.499999999999922
20
-17.499999999999986
30
0
40
15.500000000000004
210
9.8607613152626498e-32
220
2.4651903288156701e-32
230
1
0
CIRCLE
5
114
100
AcDbEntity
8
0
100
AcDbCircle
10
52.499999999999929
20
17.500000000000018
30
0
40
15.499999999999998
210
9.8607613152626498e-32
220
2.4651903288156701e-32
230
1
0
CIRCLE
5
115
100
AcDbEntity
8
0
100
AcDbCircle
10
-52.500000000000099
20
-56.5
30
0
40
3.6500000000000075
210
9.8607613152626421e-32
220
-4.9303806576313167e-32
230
1
0
LWPOLYLINE
5
116
100
AcDbEntity
8
0
100
AcDbPolyline
90
8
70
1
43
0.0
10
-76.499999999999801
20
-79.5
42
-0.41421356237309936
10
-79.499999999999801
20
-76.499999999999986
10
-79.499999999999829
20
76.500000000000028
42
-0.41421356237309681
10
-76.499999999999829
20
79.500000000000014
10
76.500000000000171
20
79.500000000000028
42
-0.41421356237309681
10
79.500000000000171
20
76.5
10
79.499999999999105
20
-76.500000000000028
42
-0.41421356237309509
10
76.499999999999119
20
-79.5
0
CIRCLE
5
117
100
AcDbEntity
8
0
100
AcDbCircle
10
-74.94999999999996
20
74.950000000000131
30
0
40
1.5500000000000052
210
1.9721522630525293e-31
220
-4.9303806576313085e-32
230
1
0
CIRCLE
5
118
100
AcDbEntity
8
0
100
AcDbCircle
10
74.949999999999562
20
74.950000000000131
30
0
40
1.5500000000000052
210
1.9721522630525293e-31
220
-4.9303806576313085e-32
230
1
0
CIRCLE
5
119
100
AcDbEntity
8
0
100
AcDbCircle
10
-74.94999999999996
20
-74.949999999999875
30
0
40
1.5500000000000052
210
1.9721522630525293e-31
220
-4.9303806576313085e-32
230
1
0
CIRCLE
5
120
100
AcDbEntity
8
0
100
AcDbCircle
10
74.949999999999534
20
-74.949999999999875
30
0
40
1.5500000000000052
210
1.9721522630525293e-31
220
-4.9303806576313085e-32
230
1
0
LWPOLYLINE
5
121
100
AcDbEntity
8
0
100
AcDbPolyline
90
4
70
1
43
0.0
10
-73.489999999999966
20
35.500000000000014
10
-76.499999999999972
20
35.500000000000014
10
-76.499999999999972
20
15.500000000000014
10
-73.489999999999966
20
15.500000000000014
0
LWPOLYLINE
5
122
100
AcDbEntity
8
0
100
AcDbPolyline
90
4
70
1
43
0.0
10
73.489999999999739
20
-15.49999999999998
10
73.489999999999739
20
-35.499999999999979
10
76.499999999999744
20
-35.499999999999979
10
76.499999999999744
20
-15.49999999999998
0
LWPOLYLINE
5
123
100
AcDbEntity
8
0
100
AcDbPolyline
90
4
70
1
43
0.0
10
35.500000000000107
20
-73.489999999999867
10
15.500000000000105
20
-73.489999999999867
10
15.499999999999661
20
-76.499999999999872
10
35.499999999999645
20
-76.499999999999872
0
LWPOLYLINE
5
124
100
AcDbEntity
8
0
100
AcDbPolyline
90
4
70
1
43
0.0
10
-15.500000000000014
20
76.500000000000128
10
-35.500000000000014
20
76.500000000000128
10
-35.500000000000014
20
73.490000000000123
10
-15.500000000000014
20
73.490000000000123
0
LWPOLYLINE
5
125
100
AcDbEntity
8
0
100
AcDbPolyline
90
4
70
1
43
0.0
10
-73.489999999999966
20
-35.499999999999979
10
-73.489999999999966
20
-15.499999999999979
10
-76.499999999999972
20
-15.499999999999979
10
-76.499999999999972
20
-35.499999999999979
0
LWPOLYLINE
5
126
100
AcDbEntity
8
0
100
AcDbPolyline
90
4
70
1
43
0.0
10
76.499999999999744
20
15.500000000000014
10
76.499999999999744
20
35.500000000000014
10
73.489999999999739
20
35.500000000000014
10
73.489999999999739
20
15.500000000000014
0
LWPOLYLINE
5
127
100
AcDbEntity
8
0
100
AcDbPolyline
90
4
70
1
43
0.0
10
-15.500000000000016
20
-73.489999999999867
10
-35.500000000000014
20
-73.489999999999867
10
-35.500000000000369
20
-76.499999999999872
10
-15.500000000000318
20
-76.499999999999872
0
LWPOLYLINE
5
128
100
AcDbEntity
8
0
100
AcDbPolyline
90
4
70
1
43
0.0
10
15.500000000000105
20
73.490000000000123
10
35.500000000000107
20
73.490000000000123
10
35.500000000000107
20
76.500000000000128
10
15.500000000000103
20
76.500000000000128
0
ENDSEC
0
SECTION
2
OBJECTS
0
DICTIONARY
5
C
100
AcDbDictionary
3
ACAD_GROUP
350
D
3
ACAD_MLINESTYLE
350
17
0
DICTIONARY
5
D
100
AcDbDictionary
0
DICTIONARY
5
1A
330
C
100
AcDbDictionary
0
DICTIONARY
5
17
100
AcDbDictionary
0
ENDSEC
0
EOF
