0
SECTION
2
HEADER
9
$INSUNITS
70
4
9
$ACADVER
1
AC1014
9
$HANDSEED
5
FFFF
0
ENDSEC
0
SECTION
2
TABLES
0
TABLE
2
VPORT
5
8
100
AcDbSymbolTable
0
ENDTAB
0
TABLE
2
LTYPE
5
5
100
AcDbSymbolTable
0
LTYPE
5
14
100
AcDbSymbolTableRecord
100
AcDbLinetypeTableRecord
2
BYBLOCK
70
0
0
LTYPE
5
15
100
AcDbSymbolTableRecord
100
AcDbLinetypeTableRecord
2
BYLAYER
70
0
0
ENDTAB
0
TABLE
2
LAYER
5
2
100
AcDbSymbolTable
70
2
0
LAYER
5
50
100
AcDbSymbolTableRecord
100
AcDbLayerTableRecord
2
0
70
0
6
CONTINUOUS
0
ENDTAB
0
TABLE
2
STYLE
5
3
100
AcDbSymbolTable
70
1
0
STYLE
5
11
100
AcDbSymbolTableRecord
100
AcDbTextStyleTableRecord
2
STANDARD
70
0
0
ENDTAB
0
TABLE
2
VIEW
5
6
100
AcDbSymbolTable
70
0
0
ENDTAB
0
TABLE
2
UCS
5
7
100
AcDbSymbolTable
70
0
0
ENDTAB
0
TABLE
2
APPID
5
9
100
AcDbSymbolTable
70
2
0
APPID
5
12
100
AcDbSymbolTableRecord
100
AcDbRegAppTableRecord
2
ACAD
70
0
0
ENDTAB
0
TABLE
2
DIMSTYLE
5
A
100
AcDbSymbolTable
70
1
0
ENDTAB
0
TABLE
2
BLOCK_RECORD
5
1
100
AcDbSymbolTable
70
1
0
BLOCK_RECORD
5
1F
100
AcDbSymbolTableRecord
100
AcDbBlockTableRecord
2
*MODEL_SPACE
0
BLOCK_RECORD
5
1B
100
AcDbSymbolTableRecord
100
AcDbBlockTableRecord
2
*PAPER_SPACE
0
ENDTAB
0
ENDSEC
0
SECTION
2
BLOCKS
0
BLOCK
5
20
100
AcDbEntity
100
AcDbBlockBegin
2
*MODEL_SPACE
0
ENDBLK
5
21
100
AcDbEntity
100
AcDbBlockEnd
0
BLOCK
5
1C
100
AcDbEntity
100
AcDbBlockBegin
2
*PAPER_SPACE
0
ENDBLK
5
1D
100
AcDbEntity
100
AcDbBlockEnd
0
ENDSEC
0
SECTION
2
ENTITIES
0
LINE
5
100
100
AcDbEntity
8
0
100
AcDbLine
10
-61.40862177285485
20
12.242408771881992
30
8.8817841970012523e-15
11
-61.40862177285485
21
3.0000001192101191
31
8.8817841970012555e-15
0
LINE
5
101
100
AcDbEntity
8
0
100
AcDbLine
10
-61.40862177285485
20
3.0000001192101191
30
8.8817841970012555e-15
11
-45.499999046337948
21
3.0000001192091768
31
8.8817841970012586e-15
0
LINE
5
102
100
AcDbEntity
8
0
100
AcDbLine
10
-45.499999046337948
20
3.0000001192091768
30
8.8817841970012586e-15
11
-45.499999046337948
21
1.1920920583996519e-07
31
8.8817841970012523e-15
0
ARC
5
103
100
AcDbEntity
8
0
100
AcDbCircle
10
-43.999999046337983
20
1.1920919279484465e-07
30
8.8817841970012523e-15
40
1.499999999999968
210
-7.0416532415322767e-61
220
-8.0968817654390629e-47
230
1
100
AcDbArc
50
180
51
270.00000000000136
0
LINE
5
104
100
AcDbEntity
8
0
100
AcDbLine
10
-43.999999046337948
20
-1.4999998807907753
30
8.8817841970012523e-15
11
-26.999999046338061
21
-1.499999880790766
31
8.8817841970012523e-15
0
ARC
5
105
100
AcDbEntity
8
0
100
AcDbCircle
10
-26.999999046338068
20
1.1920924754271756e-07
30
8.8817841970012523e-15
40
1.5000000000000135
210
-9.1934246012377081e-32
220
-5.4436008893063251e-46
230
1
100
AcDbArc
50
270.00000000000023
51
360
0
LINE
5
106
100
AcDbEntity
8
0
100
AcDbLine
10
-25.499999046338058
20
1.1920923135263518e-07
30
8.8817841970012523e-15
11
-25.499999046338072
21
3.0000001192091874
31
8.8817841970012523e-15
0
LINE
5
107
100
AcDbEntity
8
0
100
AcDbLine
10
-25.499999046338072
20
3.0000001192091874
30
8.8817841970012523e-15
11
5.5000009536740579
21
3.0000001192077361
31
8.8817841970012539e-15
0
LINE
5
108
100
AcDbEntity
8
0
100
AcDbLine
10
5.5000009536740579
20
3.0000001192077361
30
8.8817841970012539e-15
11
5.500000953678418
21
1.1920471387760756e-07
31
8.8817841970012523e-15
0
ARC
5
109
100
AcDbEntity
8
0
100
AcDbCircle
10
7.0000009536783949
20
1.1920688131050738e-07
30
8.8817841970012523e-15
40
1.4999999999999769
210
2.8425476194423976e-41
220
-1.967221882397768e-29
230
1
100
AcDbArc
50
180
51
269.99999999996783
0
LINE
5
110
100
AcDbEntity
8
0
100
AcDbLine
10
7.0000009536775529
20
-1.4999998807930908
30
8.8817841970012523e-15
11
24.000000953677603
21
-1.4999998808029775
31
8.8817841970012507e-15
0
ARC
5
111
100
AcDbEntity
8
0
100
AcDbCircle
10
24.00000095367847
20
1.1919703793439318e-07
30
8.8817841970012523e-15
40
1.5000000000000151
210
6.7786867389769236e-32
220
-6.5738408768420903e-31
230
1
100
AcDbArc
50
-90.000000000033126
51
0
0
LINE
5
112
100
AcDbEntity
8
0
100
AcDbLine
10
25.500000953678487
20
1.1919920544197795e-07
30
8.8817841970012523e-15
11
25.500000953674082
21
3.0000001191961183
31
8.8817841970012523e-15
0
LINE
5
113
100
AcDbEntity
8
0
100
AcDbLine
10
25.500000953674082
20
3.0000001191961183
30
8.8817841970012523e-15
11
56.500000953674423
21
3.0000001192354371
31
1.9515334590660916e-30
0
SPLINE
5
114
100
AcDbEntity
8
0
100
AcDbSpline
70
4
71
5
72
21
73
15
74
0
42
0.000000001
43
0.0000000001
44
0.0000000001
40
0
40
0
40
0
40
0
40
0
40
0
40
0.10000000000000001
40
0.20000000000000001
40
0.30000000000000004
40
0.40000000000000002
40
0.5
40
0.59999999999999998
40
0.69999999999999996
40
0.79999999999999993
40
0.89999999999999991
40
1
40
1
40
1
40
1
40
1
40
1
41
1
41
1
41
1
41
1
41
1
41
1
41
1
41
1
41
1
41
1
41
1
41
1
41
1
41
1
41
1
10
56.500000953659288
20
38.000000119230656
30
2.2204460492503131e-15
10
56.272458126074731
20
37.300000119231115
30
0
10
55.837243677607077
20
35.90000011923172
30
0
10
55.244033798086775
20
33.800000119231647
30
0
10
54.574288124990247
20
31.000000119229853
30
-2.2204460492503131e-15
10
53.952816785305366
20
27.500000119226048
30
0
10
53.56633406183397
20
24.000000119221859
30
0
10
53.43401681291617
20
20.500000119218633
30
0
10
53.56633406183618
20
17.000000119217276
30
2.2204460492503131e-15
10
53.952816785310034
20
13.500000119218257
30
2.2204460492503131e-15
10
54.574288124997786
20
10.000000119221607
30
0
10
55.24403379809705
20
7.2000001192260772
30
0
10
55.837243677619668
20
5.1000001192303914
30
0
10
56.272458126088992
20
3.7000001192336853
30
0
10
56.500000953674402
20
3.0000001192354357
30
0
0
LINE
5
115
100
AcDbEntity
8
0
100
AcDbLine
10
56.500000953663843
20
38.00000011922166
30
0
11
25.50000095367399
21
38.000000119209815
31
1.7763568394002501e-14
0
LINE
5
116
100
AcDbEntity
8
0
100
AcDbLine
10
25.50000095367399
20
38.000000119209815
30
1.7763568394002501e-14
11
25.500000953650908
21
41.000000119215478
31
8.8817841970012523e-15
0
ARC
5
117
100
AcDbEntity
8
0
100
AcDbCircle
10
24.000000953650932
20
41.00000011920396
30
8.8817841970012523e-15
40
1.4999999999999769
210
-5.3851380984471912e-40
220
7.0120969352848089e-29
230
1
100
AcDbArc
50
0
51
90.000000000014381
0
LINE
5
118
100
AcDbEntity
8
0
100
AcDbLine
10
24.000000953650556
20
42.500000119203932
30
8.8817841970012523e-15
11
7.0000009536809245
21
42.500000119199946
31
8.8817841970012523e-15
0
ARC
5
119
100
AcDbEntity
8
0
100
AcDbCircle
10
7.0000009536812886
20
41.000000119199925
30
8.8817841970012523e-15
40
1.5000000000000213
210
2.2660909902639329e-43
220
5.5013611799867071e-56
230
1
100
AcDbArc
50
90.000000000013898
51
180
0
LINE
5
120
100
AcDbEntity
8
0
100
AcDbLine
10
5.5000009536812673
20
41.000000119203612
30
8.8817841970012523e-15
11
5.5000009536739549
21
38.000000119209815
31
8.8817841970012523e-15
0
LINE
5
121
100
AcDbEntity
8
0
100
AcDbLine
10
5.5000009536739549
20
38.000000119209815
30
8.8817841970012523e-15
11
-25.499999046338075
21
38.00000011920303
31
8.8817841970012507e-15
0
LINE
5
122
100
AcDbEntity
8
0
100
AcDbLine
10
-25.499999046338075
20
38.00000011920303
30
8.8817841970012507e-15
11
-25.499999046338075
21
41.00000011920487
31
8.8817841970012523e-15
0
ARC
5
123
100
AcDbEntity
8
0
100
AcDbCircle
10
-26.999999046338061
20
41.000000119204884
30
8.8817841970012523e-15
40
1.4999999999999858
210
2.9193718006886782e-46
220
4.9303806576515025e-32
230
1
100
AcDbArc
50
0
51
90.00000000000081
0
LINE
5
124
100
AcDbEntity
8
0
100
AcDbLine
10
-26.999999046338083
20
42.500000119204856
30
8.8817841970012523e-15
11
-43.999999046338104
21
42.500000119204799
31
8.8817841970012523e-15
0
ARC
5
125
100
AcDbEntity
8
0
100
AcDbCircle
10
-43.99999904633809
20
41.000000119204785
30
8.8817841970012523e-15
40
1.5000000000000124
210
-1.0788405446776926e-32
220
-1.2776038534403301e-46
230
1
100
AcDbArc
50
90.00000000000054
51
180
0
LINE
5
126
100
AcDbEntity
8
0
100
AcDbLine
10
-45.499999046338111
20
41.00000011920482
30
8.8817841970012523e-15
11
-45.49999904633809
21
38.000000119204515
31
8.8817841970012523e-15
0
LINE
5
127
100
AcDbEntity
8
0
100
AcDbLine
10
-45.49999904633809
20
38.000000119204515
30
8.8817841970012523e-15
11
-76.499999046323111
21
38.000000119206739
31
8.881784197001246e-15
0
SPLINE
5
128
100
AcDbEntity
8
0
100
AcDbSpline
70
4
71
5
72
18
73
12
74
0
42
0.000000001
43
0.0000000001
44
0.0000000001
40
0
40
0
40
0
40
0
40
0
40
0
40
0.10000000000000001
40
0.20000000000000001
40
0.30000000000000004
40
0.40000000000000002
40
0.5
40
0.59999999999999998
40
0.67878832420864277
40
0.67878832420864277
40
0.67878832420864277
40
0.67878832420864277
40
0.67878832420864277
40
0.67878832420864277
41
1
41
1
41
1
41
1
41
1
41
1
41
1
41
1
41
1
41
1
41
1
41
1
10
-76.499999046323083
20
38.000000119206746
30
0
10
-76.272456218703127
20
37.300000119206551
30
0
10
-75.837241770173634
20
35.900000119206034
30
0
10
-75.244031890587834
20
33.800000119204825
30
0
10
-74.574286217454556
20
31.000000119202589
30
-2.2204460492503131e-15
10
-73.952814877793188
20
27.500000119199612
30
0
10
-73.566332154393436
20
24.000000119196979
30
0
10
-73.439628246739417
20
20.648481849734928
30
0
10
-73.529237364300101
20
17.996963580274269
30
0
10
-73.694249788931344
20
16.045445310814252
30
0
10
-73.839075075233097
20
14.793927041354296
30
0
10
-73.910315735192043
20
14.242408771894082
30
0
0
LINE
5
129
100
AcDbEntity
8
0
100
AcDbLine
10
-73.910315735192057
20
14.242408771894084
30
8.8817841970012523e-15
11
-63.408621772854843
21
14.242408771881969
31
8.8817841970012492e-15
0
ARC
5
130
100
AcDbEntity
8
0
100
AcDbCircle
10
-63.408621772854843
20
12.242408771881992
30
8.8817841970012523e-15
40
1.9999999999999929
210
0
220
-1.7244845384252708e-47
230
1
100
AcDbArc
50
0
51
90
0
ENDSEC
0
SECTION
2
OBJECTS
0
DICTIONARY
5
C
100
AcDbDictionary
3
ACAD_GROUP
350
D
3
ACAD_MLINESTYLE
350
17
0
DICTIONARY
5
D
100
AcDbDictionary
0
DICTIONARY
5
1A
330
C
100
AcDbDictionary
0
DICTIONARY
5
17
100
AcDbDictionary
0
ENDSEC
0
EOF
